<svg width="16" height="16" viewBox="0 0 16 16" fill="none" xmlns="http://www.w3.org/2000/svg">
<g clip-path="url(#clip0)">
<path fill-rule="evenodd" clip-rule="evenodd" d="M5.41177 7.49221C5.02192 7.49221 4.70588 7.80824 4.70588 8.19809C4.70588 8.58794 5.02192 8.90397 5.41177 8.90397L13.59 8.90397L10.3028 12.1912C10.0271 12.4668 10.0271 12.9138 10.3028 13.1894C10.5784 13.4651 11.0254 13.4651 11.301 13.1894L15.7933 8.69722C16.0689 8.42156 16.0689 7.97462 15.7933 7.69896L11.301 3.20675C11.0254 2.93108 10.5784 2.93108 10.3028 3.20675C10.0271 3.48241 10.0271 3.92935 10.3028 4.20502L13.59 7.49221H5.41177ZM0.705882 7.49223C0.316034 7.49223 0 7.80826 0 8.19811C0 8.58796 0.316034 8.90399 0.705882 8.90399H2.58824C2.97808 8.90399 3.29412 8.58796 3.29412 8.19811C3.29412 7.80826 2.97808 7.49223 2.58824 7.49223H0.705882Z" fill="#31F2F7"/>
</g>
<defs>
<clipPath id="clip0">
<rect width="16" height="16" fill="white"/>
</clipPath>
</defs>
</svg>
